<svg id="visual" viewBox="0 0 900 600" width="900" height="600" xmlns="http://www.w3.org/2000/svg" xmlns:xlink="http://www.w3.org/1999/xlink" version="1.1"><rect x="0" y="0" width="900" height="600" fill="#001220"></rect><path d="M480 600L481.7 594.7C483.3 589.3 486.7 578.7 491.2 568.2C495.7 557.7 501.3 547.3 497.2 536.8C493 526.3 479 515.7 472.7 505.2C466.3 494.7 467.7 484.3 466.8 473.8C466 463.3 463 452.7 465.5 442.2C468 431.7 476 421.3 482.8 410.8C489.7 400.3 495.3 389.7 498.3 379C501.3 368.3 501.7 357.7 498.5 347.2C495.3 336.7 488.7 326.3 491 315.8C493.3 305.3 504.7 294.7 507 284.2C509.3 273.7 502.7 263.3 495.7 252.8C488.7 242.3 481.3 231.7 476.2 221C471 210.3 468 199.7 467.8 189.2C467.7 178.7 470.3 168.3 477.5 157.8C484.7 147.3 496.3 136.7 497.3 126.2C498.3 115.7 488.7 105.3 487.5 94.8C486.3 84.3 493.7 73.7 500.2 63.2C506.7 52.7 512.3 42.3 508.7 31.8C505 21.3 492 10.7 485.5 5.3L479 0L900 0L900 5.3C900 10.7 900 21.3 900 31.8C900 42.3 900 52.7 900 63.2C900 73.7 900 84.3 900 94.8C900 105.3 900 115.7 900 126.2C900 136.7 900 147.3 900 157.8C900 168.3 900 178.7 900 189.2C900 199.7 900 210.3 900 221C900 231.7 900 242.3 900 252.8C900 263.3 900 273.7 900 284.2C900 294.7 900 305.3 900 315.8C900 326.3 900 336.7 900 347.2C900 357.7 900 368.3 900 379C900 389.7 900 400.3 900 410.8C900 421.3 900 431.7 900 442.2C900 452.7 900 463.3 900 473.8C900 484.3 900 494.7 900 505.2C900 515.7 900 526.3 900 536.8C900 547.3 900 557.7 900 568.2C900 578.7 900 589.3 900 594.7L900 600Z" fill="#c62368"></path><path d="M523 600L524.5 594.7C526 589.3 529 578.7 531.7 568.2C534.3 557.7 536.7 547.3 533 536.8C529.3 526.3 519.7 515.7 512.7 505.2C505.7 494.7 501.3 484.3 505 473.8C508.7 463.3 520.3 452.7 530 442.2C539.7 431.7 547.3 421.3 551 410.8C554.7 400.3 554.3 389.7 549 379C543.7 368.3 533.3 357.7 523.7 347.2C514 336.7 505 326.3 506.2 315.8C507.3 305.3 518.7 294.7 522.7 284.2C526.7 273.7 523.3 263.3 524 252.8C524.7 242.3 529.3 231.7 533.2 221C537 210.3 540 199.7 539.5 189.2C539 178.7 535 168.3 535 157.8C535 147.3 539 136.7 541.5 126.2C544 115.7 545 105.3 543.2 94.8C541.3 84.3 536.7 73.7 533.2 63.2C529.7 52.7 527.3 42.3 523.8 31.8C520.3 21.3 515.7 10.7 513.3 5.3L511 0L900 0L900 5.3C900 10.7 900 21.3 900 31.8C900 42.3 900 52.7 900 63.2C900 73.7 900 84.3 900 94.8C900 105.3 900 115.7 900 126.2C900 136.7 900 147.3 900 157.8C900 168.3 900 178.7 900 189.2C900 199.7 900 210.3 900 221C900 231.7 900 242.3 900 252.8C900 263.3 900 273.7 900 284.2C900 294.7 900 305.3 900 315.8C900 326.3 900 336.7 900 347.2C900 357.7 900 368.3 900 379C900 389.7 900 400.3 900 410.8C900 421.3 900 431.7 900 442.2C900 452.7 900 463.3 900 473.8C900 484.3 900 494.7 900 505.2C900 515.7 900 526.3 900 536.8C900 547.3 900 557.7 900 568.2C900 578.7 900 589.3 900 594.7L900 600Z" fill="#cc2c68"></path><path d="M584 600L581.7 594.7C579.3 589.3 574.7 578.7 572.2 568.2C569.7 557.7 569.3 547.3 563.7 536.8C558 526.3 547 515.7 541.5 505.2C536 494.7 536 484.3 543.3 473.8C550.7 463.3 565.3 452.7 571.2 442.2C577 431.7 574 421.3 569.7 410.8C565.3 400.3 559.7 389.7 560.5 379C561.3 368.3 568.7 357.7 571 347.2C573.3 336.7 570.7 326.3 573.5 315.8C576.3 305.3 584.7 294.7 586.5 284.2C588.3 273.7 583.7 263.3 577.3 252.8C571 242.3 563 231.7 564.3 221C565.7 210.3 576.3 199.7 580.3 189.2C584.3 178.7 581.7 168.3 576.2 157.8C570.7 147.3 562.3 136.7 562.7 126.2C563 115.7 572 105.3 574.2 94.8C576.3 84.3 571.7 73.7 569.7 63.2C567.7 52.7 568.3 42.3 572.7 31.8C577 21.3 585 10.7 589 5.3L593 0L900 0L900 5.3C900 10.7 900 21.3 900 31.8C900 42.3 900 52.7 900 63.2C900 73.7 900 84.3 900 94.8C900 105.3 900 115.7 900 126.2C900 136.7 900 147.3 900 157.8C900 168.3 900 178.7 900 189.2C900 199.7 900 210.3 900 221C900 231.7 900 242.3 900 252.8C900 263.3 900 273.7 900 284.2C900 294.7 900 305.3 900 315.8C900 326.3 900 336.7 900 347.2C900 357.7 900 368.3 900 379C900 389.7 900 400.3 900 410.8C900 421.3 900 431.7 900 442.2C900 452.7 900 463.3 900 473.8C900 484.3 900 494.7 900 505.2C900 515.7 900 526.3 900 536.8C900 547.3 900 557.7 900 568.2C900 578.7 900 589.3 900 594.7L900 600Z" fill="#d23467"></path><path d="M604 600L607.8 594.7C611.7 589.3 619.3 578.7 618.5 568.2C617.7 557.7 608.3 547.3 604.2 536.8C600 526.3 601 515.7 605.3 505.2C609.7 494.7 617.3 484.3 621.2 473.8C625 463.3 625 452.7 623.2 442.2C621.3 431.7 617.7 421.3 612.3 410.8C607 400.3 600 389.7 595 379C590 368.3 587 357.7 592.7 347.2C598.3 336.7 612.7 326.3 611.3 315.8C610 305.3 593 294.7 593 284.2C593 273.7 610 263.3 612.8 252.8C615.7 242.3 604.3 231.7 595.3 221C586.3 210.3 579.7 199.7 579 189.2C578.3 178.7 583.7 168.3 586 157.8C588.3 147.3 587.7 136.7 588.5 126.2C589.3 115.7 591.7 105.3 598.5 94.8C605.3 84.3 616.7 73.7 614.3 63.2C612 52.7 596 42.3 587.8 31.8C579.7 21.3 579.3 10.7 579.2 5.3L579 0L900 0L900 5.3C900 10.7 900 21.3 900 31.8C900 42.3 900 52.7 900 63.2C900 73.7 900 84.3 900 94.8C900 105.3 900 115.7 900 126.2C900 136.7 900 147.3 900 157.8C900 168.3 900 178.7 900 189.2C900 199.7 900 210.3 900 221C900 231.7 900 242.3 900 252.8C900 263.3 900 273.7 900 284.2C900 294.7 900 305.3 900 315.8C900 326.3 900 336.7 900 347.2C900 357.7 900 368.3 900 379C900 389.7 900 400.3 900 410.8C900 421.3 900 431.7 900 442.2C900 452.7 900 463.3 900 473.8C900 484.3 900 494.7 900 505.2C900 515.7 900 526.3 900 536.8C900 547.3 900 557.7 900 568.2C900 578.7 900 589.3 900 594.7L900 600Z" fill="#d83c67"></path><path d="M647 600L646.2 594.7C645.3 589.3 643.7 578.7 642.7 568.2C641.7 557.7 641.3 547.3 640.2 536.8C639 526.3 637 515.7 632 505.2C627 494.7 619 484.3 614.8 473.8C610.7 463.3 610.3 452.7 619.5 442.2C628.7 431.7 647.3 421.3 651.5 410.8C655.7 400.3 645.3 389.7 637.2 379C629 368.3 623 357.7 618.7 347.2C614.3 336.7 611.7 326.3 619.7 315.8C627.7 305.3 646.3 294.7 649 284.2C651.7 273.7 638.3 263.3 630.3 252.8C622.3 242.3 619.7 231.7 619.3 221C619 210.3 621 199.7 622.8 189.2C624.7 178.7 626.3 168.3 629.3 157.8C632.3 147.3 636.7 136.7 636.7 126.2C636.7 115.7 632.3 105.3 636.5 94.8C640.7 84.3 653.3 73.7 656.7 63.2C660 52.7 654 42.3 649 31.8C644 21.3 640 10.7 638 5.3L636 0L900 0L900 5.3C900 10.7 900 21.3 900 31.8C900 42.3 900 52.7 900 63.2C900 73.7 900 84.3 900 94.8C900 105.3 900 115.7 900 126.2C900 136.7 900 147.3 900 157.8C900 168.3 900 178.7 900 189.2C900 199.7 900 210.3 900 221C900 231.7 900 242.3 900 252.8C900 263.3 900 273.7 900 284.2C900 294.7 900 305.3 900 315.8C900 326.3 900 336.7 900 347.2C900 357.7 900 368.3 900 379C900 389.7 900 400.3 900 410.8C900 421.3 900 431.7 900 442.2C900 452.7 900 463.3 900 473.8C900 484.3 900 494.7 900 505.2C900 515.7 900 526.3 900 536.8C900 547.3 900 557.7 900 568.2C900 578.7 900 589.3 900 594.7L900 600Z" fill="#de4467"></path><path d="M685 600L680.7 594.7C676.3 589.3 667.7 578.7 668.2 568.2C668.7 557.7 678.3 547.3 680.7 536.8C683 526.3 678 515.7 679.2 505.2C680.3 494.7 687.7 484.3 689.7 473.8C691.7 463.3 688.3 452.7 685.8 442.2C683.3 431.7 681.7 421.3 684.2 410.8C686.7 400.3 693.3 389.7 690.2 379C687 368.3 674 357.7 670 347.2C666 336.7 671 326.3 668.5 315.8C666 305.3 656 294.7 659.3 284.2C662.7 273.7 679.3 263.3 682.7 252.8C686 242.3 676 231.7 675.8 221C675.7 210.3 685.3 199.7 682.7 189.2C680 178.7 665 168.3 666.5 157.8C668 147.3 686 136.7 692.5 126.2C699 115.7 694 105.3 688.2 94.8C682.3 84.3 675.7 73.7 677.7 63.2C679.7 52.7 690.3 42.3 688 31.8C685.7 21.3 670.3 10.7 662.7 5.3L655 0L900 0L900 5.3C900 10.7 900 21.3 900 31.8C900 42.3 900 52.7 900 63.2C900 73.7 900 84.3 900 94.8C900 105.3 900 115.7 900 126.2C900 136.7 900 147.3 900 157.8C900 168.3 900 178.7 900 189.2C900 199.7 900 210.3 900 221C900 231.7 900 242.3 900 252.8C900 263.3 900 273.7 900 284.2C900 294.7 900 305.3 900 315.8C900 326.3 900 336.7 900 347.2C900 357.7 900 368.3 900 379C900 389.7 900 400.3 900 410.8C900 421.3 900 431.7 900 442.2C900 452.7 900 463.3 900 473.8C900 484.3 900 494.7 900 505.2C900 515.7 900 526.3 900 536.8C900 547.3 900 557.7 900 568.2C900 578.7 900 589.3 900 594.7L900 600Z" fill="#e34c67"></path><path d="M735 600L728.3 594.7C721.7 589.3 708.3 578.7 700 568.2C691.7 557.7 688.3 547.3 691.3 536.8C694.3 526.3 703.7 515.7 710.7 505.2C717.7 494.7 722.3 484.3 720.5 473.8C718.7 463.3 710.3 452.7 707.7 442.2C705 431.7 708 421.3 706.7 410.8C705.3 400.3 699.7 389.7 697.7 379C695.7 368.3 697.3 357.7 701.8 347.2C706.3 336.7 713.7 326.3 715.5 315.8C717.3 305.3 713.7 294.7 711.3 284.2C709 273.7 708 263.3 707.3 252.8C706.7 242.3 706.3 231.7 707 221C707.7 210.3 709.3 199.7 712.3 189.2C715.3 178.7 719.7 168.3 715.8 157.8C712 147.3 700 136.7 695.8 126.2C691.7 115.7 695.3 105.3 701.5 94.8C707.7 84.3 716.3 73.7 716.3 63.2C716.3 52.7 707.7 42.3 705.8 31.8C704 21.3 709 10.7 711.5 5.3L714 0L900 0L900 5.3C900 10.7 900 21.3 900 31.8C900 42.3 900 52.7 900 63.2C900 73.7 900 84.3 900 94.8C900 105.3 900 115.7 900 126.2C900 136.7 900 147.3 900 157.8C900 168.3 900 178.7 900 189.2C900 199.7 900 210.3 900 221C900 231.7 900 242.3 900 252.8C900 263.3 900 273.7 900 284.2C900 294.7 900 305.3 900 315.8C900 326.3 900 336.7 900 347.2C900 357.7 900 368.3 900 379C900 389.7 900 400.3 900 410.8C900 421.3 900 431.7 900 442.2C900 452.7 900 463.3 900 473.8C900 484.3 900 494.7 900 505.2C900 515.7 900 526.3 900 536.8C900 547.3 900 557.7 900 568.2C900 578.7 900 589.3 900 594.7L900 600Z" fill="#e85467"></path><path d="M730 600L737.7 594.7C745.3 589.3 760.7 578.7 759.5 568.2C758.3 557.7 740.7 547.3 739.7 536.8C738.7 526.3 754.3 515.7 758 505.2C761.7 494.7 753.3 484.3 755 473.8C756.7 463.3 768.3 452.7 772.5 442.2C776.7 431.7 773.3 421.3 772.5 410.8C771.7 400.3 773.3 389.7 773.2 379C773 368.3 771 357.7 770 347.2C769 336.7 769 326.3 763 315.8C757 305.3 745 294.7 741.3 284.2C737.7 273.7 742.3 263.3 747.2 252.8C752 242.3 757 231.7 758.8 221C760.7 210.3 759.3 199.7 760.7 189.2C762 178.7 766 168.3 764.8 157.8C763.7 147.3 757.3 136.7 750.3 126.2C743.3 115.7 735.7 105.3 733.8 94.8C732 84.3 736 73.7 735.7 63.2C735.3 52.7 730.7 42.3 732.2 31.8C733.7 21.3 741.3 10.7 745.2 5.3L749 0L900 0L900 5.3C900 10.7 900 21.3 900 31.8C900 42.3 900 52.7 900 63.2C900 73.7 900 84.3 900 94.8C900 105.3 900 115.7 900 126.2C900 136.7 900 147.3 900 157.8C900 168.3 900 178.7 900 189.2C900 199.7 900 210.3 900 221C900 231.7 900 242.3 900 252.8C900 263.3 900 273.7 900 284.2C900 294.7 900 305.3 900 315.8C900 326.3 900 336.7 900 347.2C900 357.7 900 368.3 900 379C900 389.7 900 400.3 900 410.8C900 421.3 900 431.7 900 442.2C900 452.7 900 463.3 900 473.8C900 484.3 900 494.7 900 505.2C900 515.7 900 526.3 900 536.8C900 547.3 900 557.7 900 568.2C900 578.7 900 589.3 900 594.7L900 600Z" fill="#ed5b67"></path><path d="M773 600L779 594.7C785 589.3 797 578.7 798.2 568.2C799.3 557.7 789.7 547.3 790.7 536.8C791.7 526.3 803.3 515.7 804 505.2C804.7 494.7 794.3 484.3 793.5 473.8C792.7 463.3 801.3 452.7 799 442.2C796.7 431.7 783.3 421.3 783 410.8C782.7 400.3 795.3 389.7 795 379C794.7 368.3 781.3 357.7 781.3 347.2C781.3 336.7 794.7 326.3 795.7 315.8C796.7 305.3 785.3 294.7 784.8 284.2C784.3 273.7 794.7 263.3 793.8 252.8C793 242.3 781 231.7 782.2 221C783.3 210.3 797.7 199.7 804.8 189.2C812 178.7 812 168.3 803.3 157.8C794.7 147.3 777.3 136.7 769.5 126.2C761.7 115.7 763.3 105.3 768 94.8C772.7 84.3 780.3 73.7 785.7 63.2C791 52.7 794 42.3 792.5 31.8C791 21.3 785 10.7 782 5.3L779 0L900 0L900 5.3C900 10.7 900 21.3 900 31.8C900 42.3 900 52.7 900 63.2C900 73.7 900 84.3 900 94.8C900 105.3 900 115.7 900 126.2C900 136.7 900 147.3 900 157.8C900 168.3 900 178.7 900 189.2C900 199.7 900 210.3 900 221C900 231.7 900 242.3 900 252.8C900 263.3 900 273.7 900 284.2C900 294.7 900 305.3 900 315.8C900 326.3 900 336.7 900 347.2C900 357.7 900 368.3 900 379C900 389.7 900 400.3 900 410.8C900 421.3 900 431.7 900 442.2C900 452.7 900 463.3 900 473.8C900 484.3 900 494.7 900 505.2C900 515.7 900 526.3 900 536.8C900 547.3 900 557.7 900 568.2C900 578.7 900 589.3 900 594.7L900 600Z" fill="#f16367"></path><path d="M797 600L802.8 594.7C808.7 589.3 820.3 578.7 825.8 568.2C831.3 557.7 830.7 547.3 832.2 536.8C833.7 526.3 837.3 515.7 836.8 505.2C836.3 494.7 831.7 484.3 832.3 473.8C833 463.3 839 452.7 838 442.2C837 431.7 829 421.3 828 410.8C827 400.3 833 389.7 835.3 379C837.7 368.3 836.3 357.7 832.7 347.2C829 336.7 823 326.3 823.3 315.8C823.7 305.3 830.3 294.7 831.7 284.2C833 273.7 829 263.3 832 252.8C835 242.3 845 231.7 845.3 221C845.7 210.3 836.3 199.7 834.8 189.2C833.3 178.7 839.7 168.3 837.2 157.8C834.7 147.3 823.3 136.7 821 126.2C818.7 115.7 825.3 105.3 830 94.8C834.7 84.3 837.3 73.7 840.8 63.2C844.3 52.7 848.7 42.3 848.7 31.8C848.7 21.3 844.3 10.7 842.2 5.3L840 0L900 0L900 5.3C900 10.7 900 21.3 900 31.8C900 42.3 900 52.7 900 63.2C900 73.7 900 84.3 900 94.8C900 105.3 900 115.7 900 126.2C900 136.7 900 147.3 900 157.8C900 168.3 900 178.7 900 189.2C900 199.7 900 210.3 900 221C900 231.7 900 242.3 900 252.8C900 263.3 900 273.7 900 284.2C900 294.7 900 305.3 900 315.8C900 326.3 900 336.7 900 347.2C900 357.7 900 368.3 900 379C900 389.7 900 400.3 900 410.8C900 421.3 900 431.7 900 442.2C900 452.7 900 463.3 900 473.8C900 484.3 900 494.7 900 505.2C900 515.7 900 526.3 900 536.8C900 547.3 900 557.7 900 568.2C900 578.7 900 589.3 900 594.7L900 600Z" fill="#f66a67"></path><path d="M889 600L883.3 594.7C877.7 589.3 866.3 578.7 860 568.2C853.7 557.7 852.3 547.3 855.8 536.8C859.3 526.3 867.7 515.7 872.7 505.2C877.7 494.7 879.3 484.3 880.7 473.8C882 463.3 883 452.7 879.2 442.2C875.3 431.7 866.7 421.3 864 410.8C861.3 400.3 864.7 389.7 866.3 379C868 368.3 868 357.7 862.5 347.2C857 336.7 846 326.3 844.3 315.8C842.7 305.3 850.3 294.7 854 284.2C857.7 273.7 857.3 263.3 860 252.8C862.7 242.3 868.3 231.7 869.5 221C870.7 210.3 867.3 199.7 869.8 189.2C872.3 178.7 880.7 168.3 880.3 157.8C880 147.3 871 136.7 863.8 126.2C856.7 115.7 851.3 105.3 849.2 94.8C847 84.3 848 73.7 855.7 63.2C863.3 52.7 877.7 42.3 879.3 31.8C881 21.3 870 10.7 864.5 5.3L859 0L900 0L900 5.3C900 10.7 900 21.3 900 31.8C900 42.3 900 52.7 900 63.2C900 73.7 900 84.3 900 94.8C900 105.3 900 115.7 900 126.2C900 136.7 900 147.3 900 157.8C900 168.3 900 178.7 900 189.2C900 199.7 900 210.3 900 221C900 231.7 900 242.3 900 252.8C900 263.3 900 273.7 900 284.2C900 294.7 900 305.3 900 315.8C900 326.3 900 336.7 900 347.2C900 357.7 900 368.3 900 379C900 389.7 900 400.3 900 410.8C900 421.3 900 431.7 900 442.2C900 452.7 900 463.3 900 473.8C900 484.3 900 494.7 900 505.2C900 515.7 900 526.3 900 536.8C900 547.3 900 557.7 900 568.2C900 578.7 900 589.3 900 594.7L900 600Z" fill="#fa7268"></path></svg>