<svg id="visual" viewBox="0 0 900 600" width="900" height="600" xmlns="http://www.w3.org/2000/svg" xmlns:xlink="http://www.w3.org/1999/xlink" version="1.1"><rect x="0" y="0" width="900" height="600" fill="#001220"></rect><path d="M395 0L395.3 5.3C395.7 10.7 396.3 21.3 397.3 31.8C398.3 42.3 399.7 52.7 399 63.2C398.3 73.7 395.7 84.3 398.8 94.8C402 105.3 411 115.7 413.5 126.2C416 136.7 412 147.3 402.7 157.8C393.3 168.3 378.7 178.7 376.8 189.2C375 199.7 386 210.3 396.2 221C406.3 231.7 415.7 242.3 415.5 252.8C415.3 263.3 405.7 273.7 408.2 284.2C410.7 294.7 425.3 305.3 421.7 315.8C418 326.3 396 336.7 393.7 347.2C391.3 357.7 408.7 368.3 413 379C417.3 389.7 408.7 400.3 404.8 410.8C401 421.3 402 431.7 401 442.2C400 452.7 397 463.3 403.2 473.8C409.3 484.3 424.7 494.7 431.3 505.2C438 515.7 436 526.3 428.8 536.8C421.7 547.3 409.3 557.7 405.7 568.2C402 578.7 407 589.3 409.5 594.7L412 600L0 600L0 594.7C0 589.3 0 578.7 0 568.2C0 557.7 0 547.3 0 536.8C0 526.3 0 515.7 0 505.2C0 494.7 0 484.3 0 473.8C0 463.3 0 452.7 0 442.2C0 431.7 0 421.3 0 410.8C0 400.3 0 389.7 0 379C0 368.3 0 357.7 0 347.2C0 336.7 0 326.3 0 315.8C0 305.3 0 294.7 0 284.2C0 273.7 0 263.3 0 252.8C0 242.3 0 231.7 0 221C0 210.3 0 199.7 0 189.2C0 178.7 0 168.3 0 157.8C0 147.3 0 136.7 0 126.2C0 115.7 0 105.3 0 94.8C0 84.3 0 73.7 0 63.2C0 52.7 0 42.3 0 31.8C0 21.3 0 10.7 0 5.3L0 0Z" fill="#c62368"></path><path d="M378 0L368.3 5.3C358.7 10.7 339.3 21.3 339.5 31.8C339.7 42.3 359.3 52.7 370.8 63.2C382.3 73.7 385.7 84.3 384.7 94.8C383.7 105.3 378.3 115.7 368 126.2C357.7 136.7 342.3 147.3 337.7 157.8C333 168.3 339 178.7 336.7 189.2C334.3 199.7 323.7 210.3 321.8 221C320 231.7 327 242.3 326.8 252.8C326.7 263.3 319.3 273.7 325.5 284.2C331.7 294.7 351.3 305.3 352.2 315.8C353 326.3 335 336.7 332 347.2C329 357.7 341 368.3 345 379C349 389.7 345 400.3 345 410.8C345 421.3 349 431.7 350.5 442.2C352 452.7 351 463.3 344.2 473.8C337.3 484.3 324.7 494.7 324.3 505.2C324 515.7 336 526.3 344 536.8C352 547.3 356 557.7 361.5 568.2C367 578.7 374 589.3 377.5 594.7L381 600L0 600L0 594.7C0 589.3 0 578.7 0 568.2C0 557.7 0 547.3 0 536.8C0 526.3 0 515.7 0 505.2C0 494.7 0 484.3 0 473.8C0 463.3 0 452.7 0 442.2C0 431.7 0 421.3 0 410.8C0 400.3 0 389.7 0 379C0 368.3 0 357.7 0 347.2C0 336.7 0 326.3 0 315.8C0 305.3 0 294.7 0 284.2C0 273.7 0 263.3 0 252.8C0 242.3 0 231.7 0 221C0 210.3 0 199.7 0 189.2C0 178.7 0 168.3 0 157.8C0 147.3 0 136.7 0 126.2C0 115.7 0 105.3 0 94.8C0 84.3 0 73.7 0 63.2C0 52.7 0 42.3 0 31.8C0 21.3 0 10.7 0 5.3L0 0Z" fill="#cf3068"></path><path d="M297 0L296.8 5.3C296.7 10.7 296.3 21.3 291 31.8C285.7 42.3 275.3 52.7 277.5 63.2C279.7 73.7 294.3 84.3 297 94.8C299.7 105.3 290.3 115.7 291.5 126.2C292.7 136.7 304.3 147.3 313.5 157.8C322.7 168.3 329.3 178.7 327.5 189.2C325.7 199.7 315.3 210.3 305.3 221C295.3 231.7 285.7 242.3 289.5 252.8C293.3 263.3 310.7 273.7 315.8 284.2C321 294.7 314 305.3 305.8 315.8C297.7 326.3 288.3 336.7 285.8 347.2C283.3 357.7 287.7 368.3 292 379C296.3 389.7 300.7 400.3 304.5 410.8C308.3 421.3 311.7 431.7 304.8 442.2C298 452.7 281 463.3 283.7 473.8C286.3 484.3 308.7 494.7 313.5 505.2C318.3 515.7 305.7 526.3 304 536.8C302.3 547.3 311.7 557.7 310.2 568.2C308.7 578.7 296.3 589.3 290.2 594.7L284 600L0 600L0 594.7C0 589.3 0 578.7 0 568.2C0 557.7 0 547.3 0 536.8C0 526.3 0 515.7 0 505.2C0 494.7 0 484.3 0 473.8C0 463.3 0 452.7 0 442.2C0 431.7 0 421.3 0 410.8C0 400.3 0 389.7 0 379C0 368.3 0 357.7 0 347.2C0 336.7 0 326.3 0 315.8C0 305.3 0 294.7 0 284.2C0 273.7 0 263.3 0 252.8C0 242.3 0 231.7 0 221C0 210.3 0 199.7 0 189.2C0 178.7 0 168.3 0 157.8C0 147.3 0 136.7 0 126.2C0 115.7 0 105.3 0 94.8C0 84.3 0 73.7 0 63.2C0 52.7 0 42.3 0 31.8C0 21.3 0 10.7 0 5.3L0 0Z" fill="#d73b67"></path><path d="M221 0L223.5 5.3C226 10.7 231 21.3 242.3 31.8C253.7 42.3 271.3 52.7 272.7 63.2C274 73.7 259 84.3 249.3 94.8C239.7 105.3 235.3 115.7 235.3 126.2C235.3 136.7 239.7 147.3 241.8 157.8C244 168.3 244 178.7 251 189.2C258 199.7 272 210.3 270.3 221C268.7 231.7 251.3 242.3 245.2 252.8C239 263.3 244 273.7 241.3 284.2C238.7 294.7 228.3 305.3 232.7 315.8C237 326.3 256 336.7 264.2 347.2C272.3 357.7 269.7 368.3 266.5 379C263.3 389.7 259.7 400.3 260.2 410.8C260.7 421.3 265.3 431.7 261.7 442.2C258 452.7 246 463.3 248.2 473.8C250.3 484.3 266.7 494.7 273 505.2C279.3 515.7 275.7 526.3 270.8 536.8C266 547.3 260 557.7 261.7 568.2C263.3 578.7 272.7 589.3 277.3 594.7L282 600L0 600L0 594.7C0 589.3 0 578.7 0 568.2C0 557.7 0 547.3 0 536.8C0 526.3 0 515.7 0 505.2C0 494.7 0 484.3 0 473.8C0 463.3 0 452.7 0 442.2C0 431.7 0 421.3 0 410.8C0 400.3 0 389.7 0 379C0 368.3 0 357.7 0 347.2C0 336.7 0 326.3 0 315.8C0 305.3 0 294.7 0 284.2C0 273.7 0 263.3 0 252.8C0 242.3 0 231.7 0 221C0 210.3 0 199.7 0 189.2C0 178.7 0 168.3 0 157.8C0 147.3 0 136.7 0 126.2C0 115.7 0 105.3 0 94.8C0 84.3 0 73.7 0 63.2C0 52.7 0 42.3 0 31.8C0 21.3 0 10.7 0 5.3L0 0Z" fill="#df4667"></path><path d="M203 0L199.2 5.3C195.3 10.7 187.7 21.3 184.3 31.8C181 42.3 182 52.7 184.7 63.2C187.3 73.7 191.7 84.3 188.3 94.8C185 105.3 174 115.7 180.5 126.2C187 136.7 211 147.3 219.7 157.8C228.3 168.3 221.7 178.7 217.3 189.2C213 199.7 211 210.3 213.2 221C215.3 231.7 221.7 242.3 214.3 252.8C207 263.3 186 273.7 178.8 284.2C171.7 294.7 178.3 305.3 190 315.8C201.7 326.3 218.3 336.7 220.2 347.2C222 357.7 209 368.3 208.2 379C207.3 389.7 218.7 400.3 217.5 410.8C216.3 421.3 202.7 431.7 197 442.2C191.3 452.7 193.7 463.3 192.8 473.8C192 484.3 188 494.7 187.7 505.2C187.3 515.7 190.7 526.3 189.8 536.8C189 547.3 184 557.7 186.8 568.2C189.7 578.7 200.3 589.3 205.7 594.7L211 600L0 600L0 594.7C0 589.3 0 578.7 0 568.2C0 557.7 0 547.3 0 536.8C0 526.3 0 515.7 0 505.2C0 494.7 0 484.3 0 473.8C0 463.3 0 452.7 0 442.2C0 431.7 0 421.3 0 410.8C0 400.3 0 389.7 0 379C0 368.3 0 357.7 0 347.2C0 336.7 0 326.3 0 315.8C0 305.3 0 294.7 0 284.2C0 273.7 0 263.3 0 252.8C0 242.3 0 231.7 0 221C0 210.3 0 199.7 0 189.2C0 178.7 0 168.3 0 157.8C0 147.3 0 136.7 0 126.2C0 115.7 0 105.3 0 94.8C0 84.3 0 73.7 0 63.2C0 52.7 0 42.3 0 31.8C0 21.3 0 10.7 0 5.3L0 0Z" fill="#e75167"></path><path d="M164 0L159.7 5.3C155.3 10.7 146.7 21.3 150.5 31.8C154.3 42.3 170.7 52.7 167.7 63.2C164.7 73.7 142.3 84.3 134.2 94.8C126 105.3 132 115.7 141.5 126.2C151 136.7 164 147.3 168.8 157.8C173.7 168.3 170.3 178.7 163.2 189.2C156 199.7 145 210.3 148.7 221C152.3 231.7 170.7 242.3 167.5 252.8C164.3 263.3 139.7 273.7 136.5 284.2C133.3 294.7 151.7 305.3 156.7 315.8C161.7 326.3 153.3 336.7 152 347.2C150.7 357.7 156.3 368.3 159 379C161.7 389.7 161.3 400.3 157.3 410.8C153.3 421.3 145.7 431.7 143 442.2C140.3 452.7 142.7 463.3 143.7 473.8C144.7 484.3 144.3 494.7 140 505.2C135.7 515.7 127.3 526.3 130.8 536.8C134.3 547.3 149.7 557.7 156.3 568.2C163 578.7 161 589.3 160 594.7L159 600L0 600L0 594.7C0 589.3 0 578.7 0 568.2C0 557.7 0 547.3 0 536.8C0 526.3 0 515.7 0 505.2C0 494.7 0 484.3 0 473.8C0 463.3 0 452.7 0 442.2C0 431.7 0 421.3 0 410.8C0 400.3 0 389.7 0 379C0 368.3 0 357.7 0 347.2C0 336.7 0 326.3 0 315.8C0 305.3 0 294.7 0 284.2C0 273.7 0 263.3 0 252.8C0 242.3 0 231.7 0 221C0 210.3 0 199.7 0 189.2C0 178.7 0 168.3 0 157.8C0 147.3 0 136.7 0 126.2C0 115.7 0 105.3 0 94.8C0 84.3 0 73.7 0 63.2C0 52.7 0 42.3 0 31.8C0 21.3 0 10.7 0 5.3L0 0Z" fill="#ee5c67"></path><path d="M137 0L134.3 5.3C131.7 10.7 126.3 21.3 126.3 31.8C126.3 42.3 131.7 52.7 123 63.2C114.3 73.7 91.7 84.3 80.5 94.8C69.3 105.3 69.7 115.7 72.2 126.2C74.7 136.7 79.3 147.3 85 157.8C90.7 168.3 97.3 178.7 104.2 189.2C111 199.7 118 210.3 113 221C108 231.7 91 242.3 90.7 252.8C90.3 263.3 106.7 273.7 111.7 284.2C116.7 294.7 110.3 305.3 103 315.8C95.7 326.3 87.3 336.7 92.5 347.2C97.7 357.7 116.3 368.3 113.7 379C111 389.7 87 400.3 85.3 410.8C83.7 421.3 104.3 431.7 115 442.2C125.7 452.7 126.3 463.3 127.2 473.8C128 484.3 129 494.7 128.7 505.2C128.3 515.7 126.7 526.3 117.8 536.8C109 547.3 93 557.7 89.2 568.2C85.3 578.7 93.7 589.3 97.8 594.7L102 600L0 600L0 594.7C0 589.3 0 578.7 0 568.2C0 557.7 0 547.3 0 536.8C0 526.3 0 515.7 0 505.2C0 494.7 0 484.3 0 473.8C0 463.3 0 452.7 0 442.2C0 431.7 0 421.3 0 410.8C0 400.3 0 389.7 0 379C0 368.3 0 357.7 0 347.2C0 336.7 0 326.3 0 315.8C0 305.3 0 294.7 0 284.2C0 273.7 0 263.3 0 252.8C0 242.3 0 231.7 0 221C0 210.3 0 199.7 0 189.2C0 178.7 0 168.3 0 157.8C0 147.3 0 136.7 0 126.2C0 115.7 0 105.3 0 94.8C0 84.3 0 73.7 0 63.2C0 52.7 0 42.3 0 31.8C0 21.3 0 10.7 0 5.3L0 0Z" fill="#f46767"></path><path d="M83 0L71.8 5.3C60.7 10.7 38.3 21.3 27.8 31.8C17.3 42.3 18.7 52.7 19 63.2C19.3 73.7 18.7 84.3 30.2 94.8C41.7 105.3 65.3 115.7 67.8 126.2C70.3 136.7 51.7 147.3 44.5 157.8C37.3 168.3 41.7 178.7 48.7 189.2C55.7 199.7 65.3 210.3 69.7 221C74 231.7 73 242.3 72.2 252.8C71.3 263.3 70.7 273.7 70.8 284.2C71 294.7 72 305.3 66 315.8C60 326.3 47 336.7 41.5 347.2C36 357.7 38 368.3 42.2 379C46.3 389.7 52.7 400.3 55.5 410.8C58.3 421.3 57.7 431.7 59.7 442.2C61.7 452.7 66.3 463.3 60.7 473.8C55 484.3 39 494.7 35.5 505.2C32 515.7 41 526.3 48.8 536.8C56.7 547.3 63.3 557.7 60.2 568.2C57 578.7 44 589.3 37.5 594.7L31 600L0 600L0 594.7C0 589.3 0 578.7 0 568.2C0 557.7 0 547.3 0 536.8C0 526.3 0 515.7 0 505.2C0 494.7 0 484.3 0 473.8C0 463.3 0 452.7 0 442.2C0 431.7 0 421.3 0 410.8C0 400.3 0 389.7 0 379C0 368.3 0 357.7 0 347.2C0 336.7 0 326.3 0 315.8C0 305.3 0 294.7 0 284.2C0 273.7 0 263.3 0 252.8C0 242.3 0 231.7 0 221C0 210.3 0 199.7 0 189.2C0 178.7 0 168.3 0 157.8C0 147.3 0 136.7 0 126.2C0 115.7 0 105.3 0 94.8C0 84.3 0 73.7 0 63.2C0 52.7 0 42.3 0 31.8C0 21.3 0 10.7 0 5.3L0 0Z" fill="#fa7268"></path></svg>